<?xml version="1.0" encoding="UTF-8" standalone="no"?>
<svg width="18px" height="18px" viewBox="0 0 18 18" version="1.1" xmlns="http://www.w3.org/2000/svg" xmlns:xlink="http://www.w3.org/1999/xlink" xmlns:sketch="http://www.bohemiancoding.com/sketch/ns">
    <!-- Generator: Sketch 3.4.4 (17249) - http://www.bohemiancoding.com/sketch -->
    <title>included</title>
    <desc>Created with Sketch.</desc>
    <defs></defs>
    <g id="Page-1" stroke="none" stroke-width="1" fill="none" fill-rule="evenodd" sketch:type="MSPage">
        <g id="included" sketch:type="MSArtboardGroup" fill="#98C11D">
            <path d="M4.91903275,15.5418401 C4.92570835,15.5487771 4.9324641,15.5556641 4.9393,15.5625 C5.25013722,15.8733372 5.66672236,16.0184458 6.0762925,15.9978258 C6.43504627,15.9798772 6.78843799,15.834762 7.0607,15.5625 C7.06757973,15.5556203 7.07437827,15.5486887 7.08109563,15.5417066 L16.2533,6.3705 C16.8363,5.7865 16.8363,4.8325 16.2533,4.2485 C15.6693,3.6655 14.7153,3.6655 14.1313,4.2485 L6.00012981,12.3805548 L4.2327,10.6125 C3.6487,10.0295 2.6947,10.0295 2.1107,10.6125 C1.5277,11.1965 1.5277,12.1505 2.1107,12.7345 L4.91903275,15.5418401 Z" id="Fill-2" sketch:type="MSShapeGroup"></path>
        </g>
    </g>
</svg>