<?xml version="1.0" encoding="UTF-8" standalone="no"?>
<svg width="18px" height="18px" viewBox="0 0 18 18" version="1.1" xmlns="http://www.w3.org/2000/svg" xmlns:xlink="http://www.w3.org/1999/xlink" xmlns:sketch="http://www.bohemiancoding.com/sketch/ns">
    <!-- Generator: Sketch 3.4.4 (17249) - http://www.bohemiancoding.com/sketch -->
    <title>not-included</title>
    <desc>Created with Sketch.</desc>
    <defs></defs>
    <g id="Page-1" stroke="none" stroke-width="1" fill="none" fill-rule="evenodd" sketch:type="MSPage">
        <g id="not-included" sketch:type="MSArtboardGroup" fill="#DA3248">
            <path d="M9,6.87867966 L4.75998264,2.63866229 C4.16478754,2.0434672 3.22182541,2.05025253 2.63603897,2.63603897 C2.04616854,3.2259094 2.05142703,4.17274738 2.63866229,4.75998264 L6.87867966,9 L2.63866229,13.2400174 C2.0434672,13.8352125 2.05025253,14.7781746 2.63603897,15.363961 C3.2259094,15.9538315 4.17274738,15.948573 4.75998264,15.3613377 L9,11.1213203 L13.2400174,15.3613377 C13.8352125,15.9565328 14.7781746,15.9497475 15.363961,15.363961 C15.9538315,14.7740906 15.948573,13.8272526 15.3613377,13.2400174 L11.1213203,9 L15.3613377,4.75998264 C15.9565328,4.16478754 15.9497475,3.22182541 15.363961,2.63603897 C14.7740906,2.04616854 13.8272526,2.05142703 13.2400174,2.63866229 L9,6.87867966 Z" id="Rectangle-1" sketch:type="MSShapeGroup"></path>
        </g>
    </g>
</svg>